<svg xmlns="http://www.w3.org/2000/svg" viewBox="0 0 135.87 129.3"><defs><style>.cls-1,.cls-4{fill:none;}.cls-1{stroke:#004164;stroke-width:42px;}.cls-1,.cls-3,.cls-4{stroke-miterlimit:10;}.cls-2{fill:#ffcc4a;}.cls-3{fill:#211f1f;stroke-width:4px;}.cls-3,.cls-4{stroke:#211f1f;}.cls-4{stroke-linecap:round;stroke-width:11px;}</style></defs><title>favicon</title><g id="Layer_2" data-name="Layer 2"><g id="Layer_1-2" data-name="Layer 1"><path class="cls-1" d="M95,108.3h0a19.87,19.87,0,0,0,19.88-19.92V40.91A19.92,19.92,0,0,0,95,21H87.38"/><path class="cls-1" d="M49.49,21H40.91A19.92,19.92,0,0,0,21,40.91V88.38A19.89,19.89,0,0,0,40.88,108.3h0"/><g id="Head"><path class="cls-2" d="M49.49,5V21H40.91A19.92,19.92,0,0,0,21,40.91V88.38A19.89,19.89,0,0,0,40.88,108.3h0v16H95v-16h0a19.87,19.87,0,0,0,19.88-19.92V40.91A19.92,19.92,0,0,0,95,21H87.38V5"/><g id="Eyes"><circle class="cls-3" cx="50.98" cy="55.72" r="5.65"/><circle class="cls-3" cx="84.89" cy="55.72" r="5.65"/></g><path id="Smile" class="cls-4" d="M51,80.35a27.28,27.28,0,0,0,33.81,0"/></g></g></g></svg>